<?xml version="1.0" encoding="UTF-8" standalone="no"?>
<!-- Created with Inkscape (http://www.inkscape.org/) -->

<svg
   width="15.5"
   height="15.5"
   viewBox="0 0 4.1010418 4.1010418"
   version="1.1"
   id="svg1551"
   inkscape:version="1.1 (c68e22c387, 2021-05-23)"
   sodipodi:docname="icon-photo.svg"
   xmlns:inkscape="http://www.inkscape.org/namespaces/inkscape"
   xmlns:sodipodi="http://sodipodi.sourceforge.net/DTD/sodipodi-0.dtd"
   xmlns="http://www.w3.org/2000/svg"
   xmlns:svg="http://www.w3.org/2000/svg">
  <sodipodi:namedview
     id="namedview1553"
     pagecolor="#ffffff"
     bordercolor="#666666"
     borderopacity="1.0"
     inkscape:pageshadow="2"
     inkscape:pageopacity="0.0"
     inkscape:pagecheckerboard="0"
     inkscape:document-units="mm"
     showgrid="false"
     units="px"
     inkscape:snap-nodes="false"
     inkscape:zoom="16.368054"
     inkscape:cx="-3.0547309"
     inkscape:cy="4.9181168"
     inkscape:window-width="1920"
     inkscape:window-height="1001"
     inkscape:window-x="-9"
     inkscape:window-y="-9"
     inkscape:window-maximized="1"
     inkscape:current-layer="layer1" />
  <defs
     id="defs1548" />
  <g
     inkscape:label="Layer 1"
     inkscape:groupmode="layer"
     id="layer1">
    <g
       id="g2048"
       style="opacity:0.43;fill:#ffffff;fill-opacity:1"
       transform="matrix(1.0030836,0,0,1.1221861,-0.01247715,0.05616253)">
      <path
         id="path911"
         style="fill:#ffffff;fill-opacity:1;stroke-width:0.0643037"
         d="m 8.5507812,2.5332031 v 0.9003907 c 0.1307887,-5.7e-6 0.2271887,0 0.3652344,0 5.0907114,0 5.1782154,0.00249 5.3046874,0.1289062 0.125643,0.1256481 0.128906,0.213542 0.128906,3.8574219 0,2.0512811 -0.0067,3.7287551 -0.01563,3.7265621 -0.0088,-0.0022 -0.653565,-0.69471 -1.43164,-1.5390621 C 12.124271,8.7630754 11.423192,8.040785 11.34375,8.0039062 c -0.194642,-0.090346 -0.351985,-0.01884 -0.839844,0.375 C 9.8729708,8.8882501 9.9309128,8.9151398 8.6328125,7.5058594 8.5995515,7.4697495 8.5663575,7.4336446 8.5332031,7.3984375 8.5197567,7.723138 8.4958281,7.7926784 8.4511719,7.8847656 8.3793457,8.0331423 8.2968142,8.1156739 8.1484375,8.1875 7.978787,8.2696278 7.8808737,8.2828244 5.8632812,8.2851562 5.7063209,8.4734798 5.5454045,8.6670601 5.3535156,8.8984375 4.3559532,10.101296 3.5274676,11.085938 3.5117188,11.085938 c -0.013289,0 -0.024151,-1.2090789 -0.027344,-2.8007818 -0.3564561,-2.748e-4 -0.6476614,0.00107 -0.9023438,0 -6.205e-4,4.9549198 -0.00785,4.7726508 0.4511719,5.0019528 0.2091534,0.104478 0.6241522,0.113282 5.8828125,0.113282 5.2586586,0 5.6756176,-0.0088 5.8847656,-0.113282 C 15.270519,13.052457 15.25,13.28707 15.25,7.9667969 15.25,2.6462493 15.2705,2.8791889 14.800781,2.6445312 14.591633,2.5400365 14.174674,2.5332031 8.9160156,2.5332031 c -0.1368833,0 -0.2348318,-1.23e-5 -0.3652344,0 z m -2.7421874,0.00195 C 3.4632996,2.5422818 3.1900699,2.5661709 3.0332031,2.6445312 2.896126,2.71301 2.8007269,2.7440146 2.734375,2.8828125 l 1.5742188,0.015625 c 0.920138,0.0077 1.7211494,0.00128 1.78125,-0.013672 0.060098,-0.014971 0.1529244,-0.070893 0.2050781,-0.1230468 0.042275,-0.042274 0.065096,-0.081688 0.078125,-0.2265626 -0.183685,3.444e-4 -0.4014448,-4.952e-4 -0.5644531,0 z M 12.060547,4.359375 c -0.194455,-0.00194 -0.376313,0.05294 -0.611328,0.171875 -0.930302,0.4707613 -0.929156,1.8619794 0.002,2.3535156 C 12.00036,7.1746818 12.71684,7.0313737 13.111375,6.5527344 13.731434,5.8004451 13.382508,4.6965926 12.4375,4.421875 12.298181,4.3813679 12.177212,4.360493 12.060547,4.359375 Z M 7.1054688,6.8710938 C 6.9516553,7.0162465 6.7509786,7.2371844 6.46875,7.5664062 h 0.6445312 z"
         transform="scale(0.26458333)" />
      <path
         style="fill:#ffffff;fill-opacity:1;stroke:none;stroke-width:0.0392091;stroke-miterlimit:4;stroke-dasharray:none"
         d="m 0.18384962,2.0789488 c -0.038098,-0.018859 -0.0608049,-0.041801 -0.0794112,-0.080237 -0.0255106,-0.052696 -0.0260571,-0.072468 -0.0260571,-0.9415695 0,-0.87040847 5.1443e-4,-0.88879869 0.0261761,-0.94181452 0.0414129,-0.0855477 0.0981255,-0.10642198 0.28913001,-0.10642198 h 0.15481244 v 0.29787982 c 0,0.29653265 1.2861e-4,0.29804122 0.0306517,0.33353043 l 0.0306523,0.0356487 0.44264283,0.003704 c 0.2434532,0.002038 0.4556522,4.5012e-4 0.4715538,-0.003505 0.015901,-0.003961 0.040201,-0.018497 0.054,-0.0322959 0.023588,-0.0235872 0.025089,-0.0433388 0.025089,-0.33003038 V 0.00889626 h 0.092272 0.092271 L 1.9812434,0.20280985 2.1748548,0.39672473 V 1.1707999 c 0,0.7556366 -5.787e-4,0.7753643 -0.026175,0.8281474 -0.019004,0.039258 -0.040989,0.061243 -0.080247,0.080247 -0.053018,0.025666 -0.071387,0.026175 -0.9426485,0.026165 -0.87418435,-9.6e-6 -0.88944297,-4.501e-4 -0.94193408,-0.02642 z M 1.7911122,1.5939671 C 1.7874726,1.285553 1.7862315,1.2716055 1.7589874,1.2334156 1.7015359,1.1528733 1.6981252,1.1524366 1.1266177,1.1524366 c -0.57150617,0 -0.57491813,4.502e-4 -0.63236898,0.080979 -0.027241,0.03819 -0.028484,0.052137 -0.0321248,0.3605515 l -0.003787,0.3208233 H 1.126619 1.794901 Z M 1.2219126,0.24396422 V 0.0089059 h 0.095293 0.095294 v 0.23505832 0.23505896 h -0.095293 -0.095293 z"
         id="path961" />
    </g>
  </g>
</svg>
